# xmcd CD database file
#
# Track frame offsets:
#	150
#	19499
#	40348
#	53773
#	71473
#	84523
#	99523
#	114523
#	129898
#	142348
#	158548
#	170848
#	188548
#	204373
#	215848
#	230998
#	248323
#	266086
#	279549
#	296104
#	319128
#	330183
#	346738
#
# Disc length: 4780 seconds
#
# Revision: 0
# Processed by: cddbd v1.5.2PL0 Copyright (c) Steve Scherf et al.
# Submitted via: CDex 1.51
#
DISCID=5512aa17
DTITLE=Norah Jones - Not Too Late
DYEAR=2007
DGENRE=Jazz
TTITLE0=Wish I could
TTITLE1=Sinkin soon
TTITLE2=The sun doesn't like you
TTITLE3=Until the end
TTITLE4=Not My Friend
TTITLE5=Thinking about you
TTITLE6=Broken
TTITLE7=My dear country
TTITLE8=Wake me up
TTITLE9=Be my somebody
TTITLE10=Little room
TTITLE11=Rosie's lullaby
TTITLE12=Note too late
TTITLE13=Roly poly
TTITLE14=I'll never get out of theis world alive
TTITLE15=Love me
TTITLE16=Don't know why
TTITLE17=Felling the same way
TTITLE18=Cold cold heart
TTITLE19=New york city
TTITLE20=seven years
TTITLE21=Cold cold heart
TTITLE22=Turn me on
EXTD=YEAR: 2007
EXTT0=
EXTT1=
EXTT2=
EXTT3=
EXTT4=
EXTT5=
EXTT6=
EXTT7=
EXTT8=
EXTT9=
EXTT10=
EXTT11=
EXTT12=
EXTT13=
EXTT14=
EXTT15=
EXTT16=
EXTT17=
EXTT18=
EXTT19=
EXTT20=
EXTT21=
EXTT22=
PLAYORDER=
